# xmcd
#
# Track frame offsets: 
#        150
#        14529
#        33976
#        51084
#        75362
#        92689
#        117205
#        130673
#        153651
#        170911
#        183909
#        205089
#        220017
#        244460
#        271163
#        288042
#
# Disc length: 4015 seconds
#
# Revision: 0
# Processed by: cddbd v1.5.2PL0 Copyright (c) Steve Scherf et al.
# Submitted via: ExactAudioCopyFreeDBPlugin 1.0
#
DISCID=d60fad10
DTITLE=The Red Wagon Blues Band - Jumpin' With Friends
DYEAR=2009
DGENRE=Blues
TTITLE0=Huckleboogie (feat. Igor Prado)
TTITLE1=Big Mamou - feat. Junior Watson, Gordon Beadle
TTITLE2=My Baby's Quit Me (feat. Ray Norcia)
TTITLE3=Let's Get High - feat. Junior Watson, Gordon Beadle
TTITLE4=All Of My Life (Lywood Slim)
TTITLE5=Party Girl (feat. Igor Prado)
TTITLE6=Congo Mombo - feat. Junior Watson, Bordon Beadle
TTITLE7=Blue Night Boogie (feat. Mitch Woods)
TTITLE8=Mess Around
TTITLE9=Girl From Idaho (feat. Ray Norcia)
TTITLE10=I Want A Little Girl
TTITLE11=Jump With You Baby (feat. Lywood Slim)
TTITLE12=Kidney Stew (feat. Ray Norcia
TTITLE13=I Want To Love Somebody (feat. Igor Prado)
TTITLE14=Hey Bartender (feat. Mitch Woods
TTITLE15=Chicago Cha Caha (feat. feat. Junior Watson, Gordon Beadle
EXTD=
EXTT0=
EXTT1=
EXTT2=
EXTT3=
EXTT4=
EXTT5=
EXTT6=
EXTT7=
EXTT8=
EXTT9=
EXTT10=
EXTT11=
EXTT12=
EXTT13=
EXTT14=
EXTT15=
PLAYORDER=
